# This file is brought to you by Roblox Corporation
# Generated by Roblox Studio

mtllib user-coin.mtl

g User1

v 4 2 -134 
v 5.41421 3.41421 -134 
v 5.6641 3.1094 -134 
v 5.89737 2.63246 -134 
v 6 2 -134 
v 5.89737 1.36754 -134 
v 5.6641 0.890599 -134 
v 5.41421 0.585786 -134 
v 5.41421 0.585786 -134 
v 5.1094 0.335899 -134 
v 4.63246 0.102633 -134 
v 4 0 -134 
v 3.36754 0.102633 -134 
v 2.8906 0.335899 -134 
v 2.58579 0.585787 -134 
v 2.58579 0.585786 -134 
v 2.3359 0.8906 -134 
v 2.10263 1.36754 -134 
v 2 2 -134 
v 2.10263 2.63246 -134 
v 2.3359 3.1094 -134 
v 2.58579 3.41421 -134 
v 2.58579 3.41421 -134 
v 2.8906 3.6641 -134 
v 3.36754 3.89737 -134 
v 4 4 -134 
v 4.63246 3.89737 -134 
v 5.1094 3.6641 -134 
v 5.41421 3.41421 -134 
v 2.58579 3.41421 -135 
v 2.58579 3.41421 -134 
v 2.8906 3.6641 -135 
v 2.8906 3.6641 -134 
v 3.36754 3.89737 -135 
v 3.36754 3.89737 -134 
v 4 4 -135 
v 4 4 -134 
v 4.63246 3.89737 -135 
v 4.63246 3.89737 -134 
v 5.1094 3.6641 -135 
v 5.1094 3.6641 -134 
v 5.41421 3.41421 -135 
v 5.41421 3.41421 -134 
v 2.58579 3.41421 -134 
v 2.58579 3.41421 -135 
v 2.3359 3.1094 -134 
v 2.3359 3.1094 -135 
v 2.10263 2.63246 -134 
v 2.10263 2.63246 -135 
v 2 2 -134 
v 2 2 -135 
v 2.10263 1.36754 -134 
v 2.10263 1.36754 -135 
v 2.3359 0.890599 -134 
v 2.3359 0.890599 -135 
v 2.58579 0.585786 -134 
v 2.58579 0.585786 -135 
v 4 2 -135 
v 2.58579 3.41421 -135 
v 2.3359 3.1094 -135 
v 2.10263 2.63246 -135 
v 2 2 -135 
v 2.10263 1.36754 -135 
v 2.3359 0.890599 -135 
v 2.58579 0.585786 -135 
v 2.58579 0.585786 -135 
v 2.8906 0.335899 -135 
v 3.36754 0.102633 -135 
v 4 0 -135 
v 4.63246 0.102633 -135 
v 5.1094 0.335899 -135 
v 5.41421 0.585787 -135 
v 5.41421 0.585786 -135 
v 5.6641 0.8906 -135 
v 5.89737 1.36754 -135 
v 6 2 -135 
v 5.89737 2.63246 -135 
v 5.6641 3.1094 -135 
v 5.41421 3.41421 -135 
v 5.41421 3.41421 -135 
v 5.1094 3.6641 -135 
v 4.63246 3.89737 -135 
v 4 4 -135 
v 3.36754 3.89737 -135 
v 2.8906 3.6641 -135 
v 2.58579 3.41421 -135 
v 5.41421 0.585786 -135 
v 5.41421 0.585786 -134 
v 5.1094 0.335899 -135 
v 5.1094 0.335899 -134 
v 4.63246 0.102633 -135 
v 4.63246 0.102633 -134 
v 4 0 -135 
v 4 0 -134 
v 3.36754 0.102633 -135 
v 3.36754 0.102633 -134 
v 2.8906 0.335899 -135 
v 2.8906 0.335899 -134 
v 2.58579 0.585787 -135 
v 2.58579 0.585787 -134 
v 5.41421 3.41421 -135 
v 5.41421 3.41421 -134 
v 5.6641 3.1094 -135 
v 5.6641 3.1094 -134 
v 5.89737 2.63246 -135 
v 5.89737 2.63246 -134 
v 6 2 -135 
v 6 2 -134 
v 5.89737 1.36754 -135 
v 5.89737 1.36754 -134 
v 5.6641 0.890599 -135 
v 5.6641 0.890599 -134 
v 5.41421 0.585786 -135 
v 5.41421 0.585786 -134 

vn 0 0 1 
vn 0 0 1 
vn 0 0 1 
vn 0 0 1 
vn 0 0 1 
vn 0 0 1 
vn 0 0 1 
vn 0 0 1 
vn 0 0 1 
vn 0 0 1 
vn 0 0 1 
vn 0 0 1 
vn 0 0 1 
vn 0 0 1 
vn 0 0 1 
vn 0 0 1 
vn 0 0 1 
vn 0 0 1 
vn 0 0 1 
vn 0 0 1 
vn 0 0 1 
vn 0 0 1 
vn 0 0 1 
vn 0 0 1 
vn 0 0 1 
vn 0 0 1 
vn 0 0 1 
vn 0 0 1 
vn 0 0 1 
vn -0.708661 0.708661 0 
vn -0.708661 0.708661 0 
vn -0.551181 0.834646 0 
vn -0.551181 0.834646 0 
vn -0.314961 0.944882 0 
vn -0.314961 0.944882 0 
vn 0 1 0 
vn 0 1 0 
vn 0.314961 0.944882 0 
vn 0.314961 0.944882 0 
vn 0.551181 0.834646 0 
vn 0.551181 0.834646 0 
vn 0.708661 0.708661 0 
vn 0.708661 0.708661 0 
vn -0.708661 0.708661 0 
vn -0.708661 0.708661 0 
vn -0.834646 0.551181 0 
vn -0.834646 0.551181 0 
vn -0.944882 0.314961 0 
vn -0.944882 0.314961 0 
vn -1 0 0 
vn -1 0 0 
vn -0.944882 -0.314961 0 
vn -0.944882 -0.314961 0 
vn -0.834646 -0.551181 0 
vn -0.834646 -0.551181 0 
vn -0.708661 -0.708661 0 
vn -0.708661 -0.708661 0 
vn 0 0 -1 
vn 0 0 -1 
vn 0 0 -1 
vn 0 0 -1 
vn 0 0 -1 
vn 0 0 -1 
vn 0 0 -1 
vn 0 0 -1 
vn 0 0 -1 
vn 0 0 -1 
vn 0 0 -1 
vn 0 0 -1 
vn 0 0 -1 
vn 0 0 -1 
vn 0 0 -1 
vn 0 0 -1 
vn 0 0 -1 
vn 0 0 -1 
vn 0 0 -1 
vn 0 0 -1 
vn 0 0 -1 
vn 0 0 -1 
vn 0 0 -1 
vn 0 0 -1 
vn 0 0 -1 
vn 0 0 -1 
vn 0 0 -1 
vn 0 0 -1 
vn 0 0 -1 
vn 0.708661 -0.708661 0 
vn 0.708661 -0.708661 0 
vn 0.551181 -0.834646 0 
vn 0.551181 -0.834646 0 
vn 0.314961 -0.944882 0 
vn 0.314961 -0.944882 0 
vn 0 -1 0 
vn 0 -1 0 
vn -0.314961 -0.944882 0 
vn -0.314961 -0.944882 0 
vn -0.551181 -0.834646 0 
vn -0.551181 -0.834646 0 
vn -0.708661 -0.708661 0 
vn -0.708661 -0.708661 0 
vn 0.708661 0.708661 0 
vn 0.708661 0.708661 0 
vn 0.834646 0.551181 0 
vn 0.834646 0.551181 0 
vn 0.944882 0.314961 0 
vn 0.944882 0.314961 0 
vn 1 0 0 
vn 1 0 0 
vn 0.944882 -0.314961 0 
vn 0.944882 -0.314961 0 
vn 0.834646 -0.551181 0 
vn 0.834646 -0.551181 0 
vn 0.708661 -0.708661 0 
vn 0.708661 -0.708661 0 

vt 2.25 -4.75 
vt 2.42678 -4.57322 
vt 2.45801 -4.61132 
vt 2.48717 -4.67094 
vt 2.5 -4.75 
vt 2.48717 -4.82906 
vt 2.45801 -4.88868 
vt 2.42678 -4.92678 
vt 2.42678 -4.92678 
vt 2.38867 -4.95801 
vt 2.32906 -4.98717 
vt 2.25 -5 
vt 2.17094 -4.98717 
vt 2.11133 -4.95801 
vt 2.07322 -4.92678 
vt 2.07322 -4.92678 
vt 2.04199 -4.88868 
vt 2.01283 -4.82906 
vt 2 -4.75 
vt 2.01283 -4.67094 
vt 2.04199 -4.61132 
vt 2.07322 -4.57322 
vt 2.07322 -4.57322 
vt 2.11133 -4.54199 
vt 2.17094 -4.51283 
vt 2.25 -4.5 
vt 2.32906 -4.51283 
vt 2.38867 -4.54199 
vt 2.42678 -4.57322 
vt 4.125 -10 
vt 4 -10 
vt 4.125 -10.0833 
vt 4 -10.0833 
vt 4.125 -10.1667 
vt 4 -10.1667 
vt 4.125 -10.25 
vt 4 -10.25 
vt 4.125 -10.3333 
vt 4 -10.3333 
vt 4.125 -10.4167 
vt 4 -10.4167 
vt 4.125 -10.5 
vt 4 -10.5 
vt 4.125 -10 
vt 4 -10 
vt 4.125 -10.0833 
vt 4 -10.0833 
vt 4.125 -10.1667 
vt 4 -10.1667 
vt 4.125 -10.25 
vt 4 -10.25 
vt 4.125 -10.3333 
vt 4 -10.3333 
vt 4.125 -10.4167 
vt 4 -10.4167 
vt 4.125 -10.5 
vt 4 -10.5 
vt 2.25 -4.75 
vt 2.42678 -4.57322 
vt 2.45801 -4.61132 
vt 2.48717 -4.67094 
vt 2.5 -4.75 
vt 2.48717 -4.82906 
vt 2.45801 -4.88868 
vt 2.42678 -4.92678 
vt 2.42678 -4.92678 
vt 2.38867 -4.95801 
vt 2.32906 -4.98717 
vt 2.25 -5 
vt 2.17094 -4.98717 
vt 2.11133 -4.95801 
vt 2.07322 -4.92678 
vt 2.07322 -4.92678 
vt 2.04199 -4.88868 
vt 2.01283 -4.82906 
vt 2 -4.75 
vt 2.01283 -4.67094 
vt 2.04199 -4.61132 
vt 2.07322 -4.57322 
vt 2.07322 -4.57322 
vt 2.11133 -4.54199 
vt 2.17094 -4.51283 
vt 2.25 -4.5 
vt 2.32906 -4.51283 
vt 2.38867 -4.54199 
vt 2.42678 -4.57322 
vt 4.125 -10 
vt 4 -10 
vt 4.125 -10.0833 
vt 4 -10.0833 
vt 4.125 -10.1667 
vt 4 -10.1667 
vt 4.125 -10.25 
vt 4 -10.25 
vt 4.125 -10.3333 
vt 4 -10.3333 
vt 4.125 -10.4167 
vt 4 -10.4167 
vt 4.125 -10.5 
vt 4 -10.5 
vt 4.125 -10 
vt 4 -10 
vt 4.125 -10.0833 
vt 4 -10.0833 
vt 4.125 -10.1667 
vt 4 -10.1667 
vt 4.125 -10.25 
vt 4 -10.25 
vt 4.125 -10.3333 
vt 4 -10.3333 
vt 4.125 -10.4167 
vt 4 -10.4167 
vt 4.125 -10.5 
vt 4 -10.5 

usemtl User1Mtl

f 1/1/1 3/3/3 2/2/2 
f 1/1/1 4/4/4 3/3/3 
f 1/1/1 5/5/5 4/4/4 
f 1/1/1 6/6/6 5/5/5 
f 1/1/1 7/7/7 6/6/6 
f 1/1/1 8/8/8 7/7/7 
f 1/1/1 10/10/10 9/9/9 
f 1/1/1 11/11/11 10/10/10 
f 1/1/1 12/12/12 11/11/11 
f 1/1/1 13/13/13 12/12/12 
f 1/1/1 14/14/14 13/13/13 
f 1/1/1 15/15/15 14/14/14 
f 1/1/1 17/17/17 16/16/16 
f 1/1/1 18/18/18 17/17/17 
f 1/1/1 19/19/19 18/18/18 
f 1/1/1 20/20/20 19/19/19 
f 1/1/1 21/21/21 20/20/20 
f 1/1/1 22/22/22 21/21/21 
f 1/1/1 24/24/24 23/23/23 
f 1/1/1 25/25/25 24/24/24 
f 1/1/1 26/26/26 25/25/25 
f 1/1/1 27/27/27 26/26/26 
f 1/1/1 28/28/28 27/27/27 
f 1/1/1 29/29/29 28/28/28 
f 30/30/30 31/31/31 32/32/32 
f 32/32/32 31/31/31 33/33/33 
f 32/32/32 33/33/33 34/34/34 
f 34/34/34 33/33/33 35/35/35 
f 34/34/34 35/35/35 36/36/36 
f 36/36/36 35/35/35 37/37/37 
f 36/36/36 37/37/37 38/38/38 
f 38/38/38 37/37/37 39/39/39 
f 38/38/38 39/39/39 40/40/40 
f 40/40/40 39/39/39 41/41/41 
f 40/40/40 41/41/41 42/42/42 
f 42/42/42 41/41/41 43/43/43 
f 44/44/44 45/45/45 46/46/46 
f 46/46/46 45/45/45 47/47/47 
f 46/46/46 47/47/47 48/48/48 
f 48/48/48 47/47/47 49/49/49 
f 48/48/48 49/49/49 50/50/50 
f 50/50/50 49/49/49 51/51/51 
f 50/50/50 51/51/51 52/52/52 
f 52/52/52 51/51/51 53/53/53 
f 52/52/52 53/53/53 54/54/54 
f 54/54/54 53/53/53 55/55/55 
f 54/54/54 55/55/55 56/56/56 
f 56/56/56 55/55/55 57/57/57 
f 58/58/58 60/60/60 59/59/59 
f 58/58/58 61/61/61 60/60/60 
f 58/58/58 62/62/62 61/61/61 
f 58/58/58 63/63/63 62/62/62 
f 58/58/58 64/64/64 63/63/63 
f 58/58/58 65/65/65 64/64/64 
f 58/58/58 67/67/67 66/66/66 
f 58/58/58 68/68/68 67/67/67 
f 58/58/58 69/69/69 68/68/68 
f 58/58/58 70/70/70 69/69/69 
f 58/58/58 71/71/71 70/70/70 
f 58/58/58 72/72/72 71/71/71 
f 58/58/58 74/74/74 73/73/73 
f 58/58/58 75/75/75 74/74/74 
f 58/58/58 76/76/76 75/75/75 
f 58/58/58 77/77/77 76/76/76 
f 58/58/58 78/78/78 77/77/77 
f 58/58/58 79/79/79 78/78/78 
f 58/58/58 81/81/81 80/80/80 
f 58/58/58 82/82/82 81/81/81 
f 58/58/58 83/83/83 82/82/82 
f 58/58/58 84/84/84 83/83/83 
f 58/58/58 85/85/85 84/84/84 
f 58/58/58 86/86/86 85/85/85 
f 87/87/87 88/88/88 89/89/89 
f 89/89/89 88/88/88 90/90/90 
f 89/89/89 90/90/90 91/91/91 
f 91/91/91 90/90/90 92/92/92 
f 91/91/91 92/92/92 93/93/93 
f 93/93/93 92/92/92 94/94/94 
f 93/93/93 94/94/94 95/95/95 
f 95/95/95 94/94/94 96/96/96 
f 95/95/95 96/96/96 97/97/97 
f 97/97/97 96/96/96 98/98/98 
f 97/97/97 98/98/98 99/99/99 
f 99/99/99 98/98/98 100/100/100 
f 101/101/101 102/102/102 103/103/103 
f 103/103/103 102/102/102 104/104/104 
f 103/103/103 104/104/104 105/105/105 
f 105/105/105 104/104/104 106/106/106 
f 105/105/105 106/106/106 107/107/107 
f 107/107/107 106/106/106 108/108/108 
f 107/107/107 108/108/108 109/109/109 
f 109/109/109 108/108/108 110/110/110 
f 109/109/109 110/110/110 111/111/111 
f 111/111/111 110/110/110 112/112/112 
f 111/111/111 112/112/112 113/113/113 
f 113/113/113 112/112/112 114/114/114 

g User2

v 4 2 -135.02 
v 2.58579 3.41421 -135.02 
v 2.3359 3.1094 -135.02 
v 2.10263 2.63246 -135.02 
v 2 2 -135.02 
v 2.10263 1.36754 -135.02 
v 2.3359 0.890599 -135.02 
v 2.58579 0.585786 -135.02 
v 2.58579 0.585786 -135.02 
v 2.8906 0.335899 -135.02 
v 3.36754 0.102633 -135.02 
v 4 0 -135.02 
v 4.63246 0.102633 -135.02 
v 5.1094 0.335899 -135.02 
v 5.41421 0.585787 -135.02 
v 5.41421 0.585786 -135.02 
v 5.6641 0.8906 -135.02 
v 5.89737 1.36754 -135.02 
v 6 2 -135.02 
v 5.89737 2.63246 -135.02 
v 5.6641 3.1094 -135.02 
v 5.41421 3.41421 -135.02 
v 5.41421 3.41421 -135.02 
v 5.1094 3.6641 -135.02 
v 4.63246 3.89737 -135.02 
v 4 4 -135.02 
v 3.36754 3.89737 -135.02 
v 2.8906 3.6641 -135.02 
v 2.58579 3.41421 -135.02 

vn 0 0 -1 
vn 0 0 -1 
vn 0 0 -1 
vn 0 0 -1 
vn 0 0 -1 
vn 0 0 -1 
vn 0 0 -1 
vn 0 0 -1 
vn 0 0 -1 
vn 0 0 -1 
vn 0 0 -1 
vn 0 0 -1 
vn 0 0 -1 
vn 0 0 -1 
vn 0 0 -1 
vn 0 0 -1 
vn 0 0 -1 
vn 0 0 -1 
vn 0 0 -1 
vn 0 0 -1 
vn 0 0 -1 
vn 0 0 -1 
vn 0 0 -1 
vn 0 0 -1 
vn 0 0 -1 
vn 0 0 -1 
vn 0 0 -1 
vn 0 0 -1 
vn 0 0 -1 

vt 0.5 0.5 
vt 0.853553 0.853553 
vt 0.916025 0.77735 
vt 0.974342 0.658114 
vt 1 0.5 
vt 0.974342 0.341886 
vt 0.916025 0.22265 
vt 0.853553 0.146447 
vt 0.853553 0.146447 
vt 0.77735 0.0839748 
vt 0.658114 0.0256584 
vt 0.5 0 
vt 0.341886 0.0256584 
vt 0.22265 0.0839748 
vt 0.146447 0.146447 
vt 0.146447 0.146447 
vt 0.0839748 0.22265 
vt 0.0256583 0.341886 
vt 0 0.5 
vt 0.0256583 0.658114 
vt 0.0839748 0.77735 
vt 0.146447 0.853553 
vt 0.146447 0.853553 
vt 0.22265 0.916025 
vt 0.341886 0.974342 
vt 0.5 1 
vt 0.658114 0.974342 
vt 0.77735 0.916025 
vt 0.853553 0.853553 

usemtl User2Mtl

f 115/115/115 117/117/117 116/116/116 
f 115/115/115 118/118/118 117/117/117 
f 115/115/115 119/119/119 118/118/118 
f 115/115/115 120/120/120 119/119/119 
f 115/115/115 121/121/121 120/120/120 
f 115/115/115 122/122/122 121/121/121 
f 115/115/115 124/124/124 123/123/123 
f 115/115/115 125/125/125 124/124/124 
f 115/115/115 126/126/126 125/125/125 
f 115/115/115 127/127/127 126/126/126 
f 115/115/115 128/128/128 127/127/127 
f 115/115/115 129/129/129 128/128/128 
f 115/115/115 131/131/131 130/130/130 
f 115/115/115 132/132/132 131/131/131 
f 115/115/115 133/133/133 132/132/132 
f 115/115/115 134/134/134 133/133/133 
f 115/115/115 135/135/135 134/134/134 
f 115/115/115 136/136/136 135/135/135 
f 115/115/115 138/138/138 137/137/137 
f 115/115/115 139/139/139 138/138/138 
f 115/115/115 140/140/140 139/139/139 
f 115/115/115 141/141/141 140/140/140 
f 115/115/115 142/142/142 141/141/141 
f 115/115/115 143/143/143 142/142/142 

g User3

v 4 2 -135.02 
v 2.58579 3.41421 -135.02 
v 2.3359 3.1094 -135.02 
v 2.10263 2.63246 -135.02 
v 2 2 -135.02 
v 2.10263 1.36754 -135.02 
v 2.3359 0.890599 -135.02 
v 2.58579 0.585786 -135.02 
v 2.58579 0.585786 -135.02 
v 2.8906 0.335899 -135.02 
v 3.36754 0.102633 -135.02 
v 4 0 -135.02 
v 4.63246 0.102633 -135.02 
v 5.1094 0.335899 -135.02 
v 5.41421 0.585787 -135.02 
v 5.41421 0.585786 -135.02 
v 5.6641 0.8906 -135.02 
v 5.89737 1.36754 -135.02 
v 6 2 -135.02 
v 5.89737 2.63246 -135.02 
v 5.6641 3.1094 -135.02 
v 5.41421 3.41421 -135.02 
v 5.41421 3.41421 -135.02 
v 5.1094 3.6641 -135.02 
v 4.63246 3.89737 -135.02 
v 4 4 -135.02 
v 3.36754 3.89737 -135.02 
v 2.8906 3.6641 -135.02 
v 2.58579 3.41421 -135.02 

vn 0 0 -1 
vn 0 0 -1 
vn 0 0 -1 
vn 0 0 -1 
vn 0 0 -1 
vn 0 0 -1 
vn 0 0 -1 
vn 0 0 -1 
vn 0 0 -1 
vn 0 0 -1 
vn 0 0 -1 
vn 0 0 -1 
vn 0 0 -1 
vn 0 0 -1 
vn 0 0 -1 
vn 0 0 -1 
vn 0 0 -1 
vn 0 0 -1 
vn 0 0 -1 
vn 0 0 -1 
vn 0 0 -1 
vn 0 0 -1 
vn 0 0 -1 
vn 0 0 -1 
vn 0 0 -1 
vn 0 0 -1 
vn 0 0 -1 
vn 0 0 -1 
vn 0 0 -1 

vt 0.5 0.5 
vt 0.853553 0.853553 
vt 0.916025 0.77735 
vt 0.974342 0.658114 
vt 1 0.5 
vt 0.974342 0.341886 
vt 0.916025 0.22265 
vt 0.853553 0.146447 
vt 0.853553 0.146447 
vt 0.77735 0.0839748 
vt 0.658114 0.0256584 
vt 0.5 0 
vt 0.341886 0.0256584 
vt 0.22265 0.0839748 
vt 0.146447 0.146447 
vt 0.146447 0.146447 
vt 0.0839748 0.22265 
vt 0.0256583 0.341886 
vt 0 0.5 
vt 0.0256583 0.658114 
vt 0.0839748 0.77735 
vt 0.146447 0.853553 
vt 0.146447 0.853553 
vt 0.22265 0.916025 
vt 0.341886 0.974342 
vt 0.5 1 
vt 0.658114 0.974342 
vt 0.77735 0.916025 
vt 0.853553 0.853553 

usemtl User2Mtl

f 144/144/144 146/146/146 145/145/145 
f 144/144/144 147/147/147 146/146/146 
f 144/144/144 148/148/148 147/147/147 
f 144/144/144 149/149/149 148/148/148 
f 144/144/144 150/150/150 149/149/149 
f 144/144/144 151/151/151 150/150/150 
f 144/144/144 153/153/153 152/152/152 
f 144/144/144 154/154/154 153/153/153 
f 144/144/144 155/155/155 154/154/154 
f 144/144/144 156/156/156 155/155/155 
f 144/144/144 157/157/157 156/156/156 
f 144/144/144 158/158/158 157/157/157 
f 144/144/144 160/160/160 159/159/159 
f 144/144/144 161/161/161 160/160/160 
f 144/144/144 162/162/162 161/161/161 
f 144/144/144 163/163/163 162/162/162 
f 144/144/144 164/164/164 163/163/163 
f 144/144/144 165/165/165 164/164/164 
f 144/144/144 167/167/167 166/166/166 
f 144/144/144 168/168/168 167/167/167 
f 144/144/144 169/169/169 168/168/168 
f 144/144/144 170/170/170 169/169/169 
f 144/144/144 171/171/171 170/170/170 
f 144/144/144 172/172/172 171/171/171 

g User4

v 4 2 -133.98 
v 5.41421 3.41421 -133.98 
v 5.6641 3.1094 -133.98 
v 5.89737 2.63246 -133.98 
v 6 2 -133.98 
v 5.89737 1.36754 -133.98 
v 5.6641 0.890599 -133.98 
v 5.41421 0.585786 -133.98 
v 5.41421 0.585786 -133.98 
v 5.1094 0.335899 -133.98 
v 4.63246 0.102633 -133.98 
v 4 0 -133.98 
v 3.36754 0.102633 -133.98 
v 2.8906 0.335899 -133.98 
v 2.58579 0.585787 -133.98 
v 2.58579 0.585786 -133.98 
v 2.3359 0.8906 -133.98 
v 2.10263 1.36754 -133.98 
v 2 2 -133.98 
v 2.10263 2.63246 -133.98 
v 2.3359 3.1094 -133.98 
v 2.58579 3.41421 -133.98 
v 2.58579 3.41421 -133.98 
v 2.8906 3.6641 -133.98 
v 3.36754 3.89737 -133.98 
v 4 4 -133.98 
v 4.63246 3.89737 -133.98 
v 5.1094 3.6641 -133.98 
v 5.41421 3.41421 -133.98 

vn 0 0 1 
vn 0 0 1 
vn 0 0 1 
vn 0 0 1 
vn 0 0 1 
vn 0 0 1 
vn 0 0 1 
vn 0 0 1 
vn 0 0 1 
vn 0 0 1 
vn 0 0 1 
vn 0 0 1 
vn 0 0 1 
vn 0 0 1 
vn 0 0 1 
vn 0 0 1 
vn 0 0 1 
vn 0 0 1 
vn 0 0 1 
vn 0 0 1 
vn 0 0 1 
vn 0 0 1 
vn 0 0 1 
vn 0 0 1 
vn 0 0 1 
vn 0 0 1 
vn 0 0 1 
vn 0 0 1 
vn 0 0 1 

vt 0.5 0.5 
vt 0.853553 0.853553 
vt 0.916025 0.77735 
vt 0.974342 0.658114 
vt 1 0.5 
vt 0.974342 0.341886 
vt 0.916025 0.22265 
vt 0.853553 0.146447 
vt 0.853553 0.146447 
vt 0.77735 0.0839748 
vt 0.658114 0.0256584 
vt 0.5 0 
vt 0.341886 0.0256584 
vt 0.22265 0.0839748 
vt 0.146447 0.146447 
vt 0.146447 0.146447 
vt 0.0839748 0.22265 
vt 0.0256583 0.341886 
vt 0 0.5 
vt 0.0256583 0.658114 
vt 0.0839748 0.77735 
vt 0.146447 0.853553 
vt 0.146447 0.853553 
vt 0.22265 0.916025 
vt 0.341886 0.974342 
vt 0.5 1 
vt 0.658114 0.974342 
vt 0.77735 0.916025 
vt 0.853553 0.853553 

usemtl User2Mtl

f 173/173/173 175/175/175 174/174/174 
f 173/173/173 176/176/176 175/175/175 
f 173/173/173 177/177/177 176/176/176 
f 173/173/173 178/178/178 177/177/177 
f 173/173/173 179/179/179 178/178/178 
f 173/173/173 180/180/180 179/179/179 
f 173/173/173 182/182/182 181/181/181 
f 173/173/173 183/183/183 182/182/182 
f 173/173/173 184/184/184 183/183/183 
f 173/173/173 185/185/185 184/184/184 
f 173/173/173 186/186/186 185/185/185 
f 173/173/173 187/187/187 186/186/186 
f 173/173/173 189/189/189 188/188/188 
f 173/173/173 190/190/190 189/189/189 
f 173/173/173 191/191/191 190/190/190 
f 173/173/173 192/192/192 191/191/191 
f 173/173/173 193/193/193 192/192/192 
f 173/173/173 194/194/194 193/193/193 
f 173/173/173 196/196/196 195/195/195 
f 173/173/173 197/197/197 196/196/196 
f 173/173/173 198/198/198 197/197/197 
f 173/173/173 199/199/199 198/198/198 
f 173/173/173 200/200/200 199/199/199 
f 173/173/173 201/201/201 200/200/200 

